<svg width="269" height="56" viewBox="0 0 269 56" fill="none" xmlns="http://www.w3.org/2000/svg">
<rect width="269" height="56" fill="#FFD050"/>
<path d="M54.3281 21.9414C55.5703 21.9414 56.6602 22.1934 57.5977 22.6973C58.5352 23.2012 59.2617 23.9043 59.7773 24.8066C60.3047 25.709 60.5684 26.7695 60.5684 27.9883C60.5684 29.1484 60.3223 30.2031 59.8301 31.1523C59.3379 32.0898 58.6348 32.834 57.7207 33.3848C56.8066 33.9355 55.7168 34.2109 54.4512 34.2109C53.6426 34.2109 52.834 34.1699 52.0254 34.0879C51.2285 34.0059 50.4727 33.8945 49.7578 33.7539V22.3984C50.4844 22.2812 51.2285 22.1758 51.9902 22.082C52.752 21.9883 53.5312 21.9414 54.3281 21.9414ZM54.3809 24.2266C54.0293 24.2266 53.6602 24.2441 53.2734 24.2793C52.8867 24.3145 52.5293 24.3613 52.2012 24.4199V31.7324C52.5527 31.8027 52.916 31.8555 53.291 31.8906C53.6777 31.9141 54.041 31.9258 54.3809 31.9258C55.1543 31.9258 55.8164 31.7617 56.3672 31.4336C56.918 31.0938 57.3398 30.6309 57.6328 30.0449C57.9258 29.459 58.0723 28.8027 58.0723 28.0762C58.0723 27.3262 57.9258 26.6641 57.6328 26.0898C57.3398 25.5156 56.918 25.0645 56.3672 24.7363C55.8164 24.3965 55.1543 24.2266 54.3809 24.2266ZM64.5938 20.5C65.0156 20.5 65.3789 20.6523 65.6836 20.957C65.9883 21.25 66.1406 21.6016 66.1406 22.0117C66.1406 22.4102 65.9883 22.7617 65.6836 23.0664C65.3789 23.3711 65.0156 23.5234 64.5938 23.5234C64.1719 23.5234 63.8086 23.3711 63.5039 23.0664C63.2109 22.7617 63.0645 22.4102 63.0645 22.0117C63.0645 21.6016 63.2109 21.25 63.5039 20.957C63.8086 20.6523 64.1719 20.5 64.5938 20.5ZM65.8945 25.123V34H63.6621V27.0215H62.2383V25.123H65.8945ZM71.5723 24.8945C72.123 24.8945 72.6328 24.9766 73.1016 25.1406C73.5703 25.3047 73.9336 25.4922 74.1914 25.7031V27.6719C73.9102 27.4844 73.5645 27.3027 73.1543 27.127C72.7559 26.9512 72.3398 26.8633 71.9062 26.8633C71.4844 26.8633 71.1504 26.957 70.9043 27.1445C70.6582 27.332 70.5352 27.5547 70.5352 27.8125C70.5352 28 70.6055 28.1758 70.7461 28.3398C70.8867 28.4922 71.1562 28.627 71.5547 28.7441L72.5566 29.0781C73.9043 29.4766 74.5781 30.2559 74.5781 31.416C74.5781 31.9668 74.4199 32.459 74.1035 32.8926C73.7988 33.3145 73.3828 33.6484 72.8555 33.8945C72.3398 34.1406 71.7656 34.2637 71.1328 34.2637C70.5352 34.2637 69.9551 34.1699 69.3926 33.9824C68.8301 33.7949 68.4023 33.5898 68.1094 33.3672V31.416C68.332 31.5684 68.6016 31.7148 68.918 31.8555C69.2344 31.9961 69.5625 32.1133 69.9023 32.207C70.2422 32.2891 70.5527 32.3301 70.834 32.3301C71.2793 32.3301 71.6191 32.2539 71.8535 32.1016C72.0996 31.9375 72.2227 31.709 72.2227 31.416C72.2227 31.1934 72.123 31.0176 71.9238 30.8887C71.7246 30.7598 71.4316 30.6309 71.0449 30.502L69.9551 30.1152C69.2754 29.8926 68.8066 29.5762 68.5488 29.166C68.291 28.7559 68.1621 28.2695 68.1621 27.707C68.1621 27.1445 68.3027 26.6582 68.584 26.248C68.877 25.8262 69.2812 25.498 69.7969 25.2637C70.3125 25.0176 70.9043 24.8945 71.5723 24.8945ZM80.5195 24.8945C81.1758 24.8945 81.7148 25 82.1367 25.2109C82.5586 25.4219 82.8926 25.627 83.1387 25.8262V27.8828C82.834 27.6602 82.4883 27.4727 82.1016 27.3203C81.7266 27.168 81.2637 27.0918 80.7129 27.0918C80.2676 27.0918 79.8516 27.2031 79.4648 27.4258C79.0898 27.6484 78.791 27.9473 78.5684 28.3223C78.3457 28.6973 78.2344 29.125 78.2344 29.6055C78.2344 30.332 78.4688 30.9297 78.9375 31.3984C79.4062 31.8672 79.998 32.1016 80.7129 32.1016C81.2637 32.1016 81.7266 32.0312 82.1016 31.8906C82.4883 31.7383 82.834 31.5508 83.1387 31.3281V33.3672C82.8926 33.5781 82.5586 33.7832 82.1367 33.9824C81.7148 34.1699 81.1758 34.2637 80.5195 34.2637C79.6172 34.2637 78.8145 34.0527 78.1113 33.6309C77.4199 33.1973 76.8691 32.6289 76.459 31.9258C76.0605 31.2109 75.8613 30.4375 75.8613 29.6055C75.8613 28.9844 75.9727 28.3926 76.1953 27.8301C76.4297 27.2676 76.7578 26.7695 77.1797 26.3359C77.6016 25.8906 78.0938 25.5391 78.6562 25.2812C79.2305 25.0234 79.8516 24.8945 80.5195 24.8945ZM89.2559 24.8945C90.123 24.8945 90.9141 25.1055 91.6289 25.5273C92.3438 25.9375 92.918 26.5 93.3516 27.2148C93.7969 27.918 94.0195 28.709 94.0195 29.5879C94.0195 30.4668 93.7969 31.2578 93.3516 31.9609C92.918 32.6641 92.3438 33.2266 91.6289 33.6484C90.9141 34.0586 90.123 34.2637 89.2559 34.2637C88.4004 34.2637 87.6094 34.0586 86.8828 33.6484C86.168 33.2266 85.5938 32.6641 85.1602 31.9609C84.7266 31.2578 84.5098 30.4668 84.5098 29.5879C84.5098 28.709 84.7266 27.918 85.1602 27.2148C85.5938 26.5 86.168 25.9375 86.8828 25.5273C87.6094 25.1055 88.4004 24.8945 89.2559 24.8945ZM89.2559 27.0566C88.834 27.0566 88.4414 27.1562 88.0781 27.3555C87.7148 27.5547 87.4219 27.8418 87.1992 28.2168C86.9883 28.5918 86.8828 29.0488 86.8828 29.5879C86.8828 30.127 86.9883 30.584 87.1992 30.959C87.4219 31.334 87.7148 31.6211 88.0781 31.8203C88.4414 32.0078 88.834 32.1016 89.2559 32.1016C89.6777 32.1016 90.0703 32.0078 90.4336 31.8203C90.7969 31.6211 91.0898 31.334 91.3125 30.959C91.5352 30.584 91.6465 30.127 91.6465 29.5879C91.6465 29.0488 91.5352 28.5918 91.3125 28.2168C91.0898 27.8418 90.7969 27.5547 90.4336 27.3555C90.0703 27.1562 89.6777 27.0566 89.2559 27.0566ZM104.355 25.123L100.154 34H98.7305L94.582 25.123H97.1836L99.416 30.625L101.754 25.123H104.355ZM109.348 24.8945C110.215 24.8945 110.959 25.082 111.58 25.457C112.213 25.832 112.693 26.3535 113.021 27.0215C113.361 27.6777 113.531 28.4395 113.531 29.3066V30.2559H107.098C107.215 30.8535 107.508 31.334 107.977 31.6973C108.445 32.0605 109.02 32.2422 109.699 32.2422C110.344 32.2422 110.93 32.1133 111.457 31.8555C111.984 31.5977 112.406 31.334 112.723 31.0645L112.705 33.1387C112.424 33.3848 112.002 33.6367 111.439 33.8945C110.889 34.1406 110.279 34.2637 109.611 34.2637C108.732 34.2637 107.93 34.0645 107.203 33.666C106.488 33.2676 105.914 32.7227 105.48 32.0312C105.059 31.3398 104.848 30.5488 104.848 29.6582C104.848 28.791 105.041 28 105.428 27.2852C105.814 26.5703 106.348 25.9961 107.027 25.5625C107.707 25.1172 108.48 24.8945 109.348 24.8945ZM109.295 26.8457C108.744 26.8457 108.281 27.0156 107.906 27.3555C107.531 27.6953 107.273 28.1523 107.133 28.7266H111.387C111.34 28.0938 111.105 27.625 110.684 27.3203C110.262 27.0039 109.799 26.8457 109.295 26.8457ZM121.16 27.6191C120.785 27.4082 120.393 27.3027 119.982 27.3027C119.467 27.3027 119.039 27.4727 118.699 27.8125C118.359 28.1406 118.061 28.5508 117.803 29.043V34H115.57V25.123H117.803V26.793C118.107 26.2656 118.465 25.8262 118.875 25.4746C119.297 25.123 119.771 24.9473 120.299 24.9473C120.615 24.9473 120.902 25 121.16 25.1055V27.6191ZM132.287 24.8945C133.154 24.8945 133.945 25.1055 134.66 25.5273C135.375 25.9375 135.949 26.5 136.383 27.2148C136.828 27.918 137.051 28.709 137.051 29.5879C137.051 30.4668 136.828 31.2578 136.383 31.9609C135.949 32.6641 135.375 33.2266 134.66 33.6484C133.945 34.0586 133.154 34.2637 132.287 34.2637C131.432 34.2637 130.641 34.0586 129.914 33.6484C129.199 33.2266 128.625 32.6641 128.191 31.9609C127.758 31.2578 127.541 30.4668 127.541 29.5879C127.541 28.709 127.758 27.918 128.191 27.2148C128.625 26.5 129.199 25.9375 129.914 25.5273C130.641 25.1055 131.432 24.8945 132.287 24.8945ZM132.287 27.0566C131.865 27.0566 131.473 27.1562 131.109 27.3555C130.746 27.5547 130.453 27.8418 130.23 28.2168C130.02 28.5918 129.914 29.0488 129.914 29.5879C129.914 30.127 130.02 30.584 130.23 30.959C130.453 31.334 130.746 31.6211 131.109 31.8203C131.473 32.0078 131.865 32.1016 132.287 32.1016C132.709 32.1016 133.102 32.0078 133.465 31.8203C133.828 31.6211 134.121 31.334 134.344 30.959C134.566 30.584 134.678 30.127 134.678 29.5879C134.678 29.0488 134.566 28.5918 134.344 28.2168C134.121 27.8418 133.828 27.5547 133.465 27.3555C133.102 27.1562 132.709 27.0566 132.287 27.0566ZM147 25.123V30.4141C147 31.1992 146.824 31.8789 146.473 32.4531C146.121 33.0156 145.641 33.4492 145.031 33.7539C144.434 34.0586 143.754 34.2109 142.992 34.2109C142.219 34.2109 141.527 34.0586 140.918 33.7539C140.32 33.4492 139.846 33.0156 139.494 32.4531C139.154 31.8789 138.984 31.1992 138.984 30.4141V25.123H141.234L141.252 30.0098C141.252 30.7012 141.41 31.2168 141.727 31.5566C142.043 31.8965 142.465 32.0664 142.992 32.0664C143.508 32.0664 143.924 31.8965 144.24 31.5566C144.568 31.2168 144.732 30.7012 144.732 30.0098V25.123H147ZM155.139 27.6191C154.764 27.4082 154.371 27.3027 153.961 27.3027C153.445 27.3027 153.018 27.4727 152.678 27.8125C152.338 28.1406 152.039 28.5508 151.781 29.043V34H149.549V25.123H151.781V26.793C152.086 26.2656 152.443 25.8262 152.854 25.4746C153.275 25.123 153.75 24.9473 154.277 24.9473C154.594 24.9473 154.881 25 155.139 25.1055V27.6191ZM165 24.8945C165.551 24.8945 166.061 24.9766 166.529 25.1406C166.998 25.3047 167.361 25.4922 167.619 25.7031V27.6719C167.338 27.4844 166.992 27.3027 166.582 27.127C166.184 26.9512 165.768 26.8633 165.334 26.8633C164.912 26.8633 164.578 26.957 164.332 27.1445C164.086 27.332 163.963 27.5547 163.963 27.8125C163.963 28 164.033 28.1758 164.174 28.3398C164.314 28.4922 164.584 28.627 164.982 28.7441L165.984 29.0781C167.332 29.4766 168.006 30.2559 168.006 31.416C168.006 31.9668 167.848 32.459 167.531 32.8926C167.227 33.3145 166.811 33.6484 166.283 33.8945C165.768 34.1406 165.193 34.2637 164.561 34.2637C163.963 34.2637 163.383 34.1699 162.82 33.9824C162.258 33.7949 161.83 33.5898 161.537 33.3672V31.416C161.76 31.5684 162.029 31.7148 162.346 31.8555C162.662 31.9961 162.99 32.1133 163.33 32.207C163.67 32.2891 163.98 32.3301 164.262 32.3301C164.707 32.3301 165.047 32.2539 165.281 32.1016C165.527 31.9375 165.65 31.709 165.65 31.416C165.65 31.1934 165.551 31.0176 165.352 30.8887C165.152 30.7598 164.859 30.6309 164.473 30.502L163.383 30.1152C162.703 29.8926 162.234 29.5762 161.977 29.166C161.719 28.7559 161.59 28.2695 161.59 27.707C161.59 27.1445 161.73 26.6582 162.012 26.248C162.305 25.8262 162.709 25.498 163.225 25.2637C163.74 25.0176 164.332 24.8945 165 24.8945ZM173.121 22.5391V25.123H175.582V26.9863H173.121V30.8184C173.121 31.2168 173.209 31.5332 173.385 31.7676C173.572 31.9902 173.848 32.1016 174.211 32.1016C174.527 32.1016 174.797 32.0664 175.02 31.9961C175.254 31.9258 175.471 31.8262 175.67 31.6973V33.4727C175.447 33.6953 175.166 33.8828 174.826 34.0352C174.498 34.1875 174.082 34.2637 173.578 34.2637C172.781 34.2637 172.131 34.0117 171.627 33.5078C171.135 32.9922 170.889 32.2891 170.889 31.3984V26.9863H169.289V25.8438C169.852 25.6445 170.367 25.2695 170.836 24.7188C171.316 24.168 171.697 23.4414 171.979 22.5391H173.121ZM181.998 24.8945C182.865 24.8945 183.656 25.1055 184.371 25.5273C185.086 25.9375 185.66 26.5 186.094 27.2148C186.539 27.918 186.762 28.709 186.762 29.5879C186.762 30.4668 186.539 31.2578 186.094 31.9609C185.66 32.6641 185.086 33.2266 184.371 33.6484C183.656 34.0586 182.865 34.2637 181.998 34.2637C181.143 34.2637 180.352 34.0586 179.625 33.6484C178.91 33.2266 178.336 32.6641 177.902 31.9609C177.469 31.2578 177.252 30.4668 177.252 29.5879C177.252 28.709 177.469 27.918 177.902 27.2148C178.336 26.5 178.91 25.9375 179.625 25.5273C180.352 25.1055 181.143 24.8945 181.998 24.8945ZM181.998 27.0566C181.576 27.0566 181.184 27.1562 180.82 27.3555C180.457 27.5547 180.164 27.8418 179.941 28.2168C179.73 28.5918 179.625 29.0488 179.625 29.5879C179.625 30.127 179.73 30.584 179.941 30.959C180.164 31.334 180.457 31.6211 180.82 31.8203C181.184 32.0078 181.576 32.1016 181.998 32.1016C182.42 32.1016 182.812 32.0078 183.176 31.8203C183.539 31.6211 183.832 31.334 184.055 30.959C184.277 30.584 184.389 30.127 184.389 29.5879C184.389 29.0488 184.277 28.5918 184.055 28.2168C183.832 27.8418 183.539 27.5547 183.176 27.3555C182.812 27.1562 182.42 27.0566 181.998 27.0566ZM194.461 27.6191C194.086 27.4082 193.693 27.3027 193.283 27.3027C192.768 27.3027 192.34 27.4727 192 27.8125C191.66 28.1406 191.361 28.5508 191.104 29.043V34H188.871V25.123H191.104V26.793C191.408 26.2656 191.766 25.8262 192.176 25.4746C192.598 25.123 193.072 24.9473 193.6 24.9473C193.916 24.9473 194.203 25 194.461 25.1055V27.6191ZM197.59 25.123L200.121 30.7832L202.582 25.123H205.131L198.68 38.2188H196.148L198.82 33.3496L194.988 25.123H197.59ZM211.459 23.5762V26.002L216.311 28.6738L211.459 31.5742V34L219.105 29.1484V28.252L211.459 23.5762Z" fill="#232536"/>
</svg>
