<svg width="171" height="19" viewBox="0 0 171 19" fill="none" xmlns="http://www.w3.org/2000/svg">
<path d="M5.32812 1.94141C6.57031 1.94141 7.66016 2.19336 8.59766 2.69727C9.53516 3.20117 10.2617 3.9043 10.7773 4.80664C11.3047 5.70898 11.5684 6.76953 11.5684 7.98828C11.5684 9.14844 11.3223 10.2031 10.8301 11.1523C10.3379 12.0898 9.63477 12.834 8.7207 13.3848C7.80664 13.9355 6.7168 14.2109 5.45117 14.2109C4.64258 14.2109 3.83398 14.1699 3.02539 14.0879C2.22852 14.0059 1.47266 13.8945 0.757812 13.7539V2.39844C1.48438 2.28125 2.22852 2.17578 2.99023 2.08203C3.75195 1.98828 4.53125 1.94141 5.32812 1.94141ZM5.38086 4.22656C5.0293 4.22656 4.66016 4.24414 4.27344 4.2793C3.88672 4.31445 3.5293 4.36133 3.20117 4.41992V11.7324C3.55273 11.8027 3.91602 11.8555 4.29102 11.8906C4.67773 11.9141 5.04102 11.9258 5.38086 11.9258C6.1543 11.9258 6.81641 11.7617 7.36719 11.4336C7.91797 11.0938 8.33984 10.6309 8.63281 10.0449C8.92578 9.45898 9.07227 8.80273 9.07227 8.07617C9.07227 7.32617 8.92578 6.66406 8.63281 6.08984C8.33984 5.51562 7.91797 5.06445 7.36719 4.73633C6.81641 4.39648 6.1543 4.22656 5.38086 4.22656ZM15.5938 0.5C16.0156 0.5 16.3789 0.652344 16.6836 0.957031C16.9883 1.25 17.1406 1.60156 17.1406 2.01172C17.1406 2.41016 16.9883 2.76172 16.6836 3.06641C16.3789 3.37109 16.0156 3.52344 15.5938 3.52344C15.1719 3.52344 14.8086 3.37109 14.5039 3.06641C14.2109 2.76172 14.0645 2.41016 14.0645 2.01172C14.0645 1.60156 14.2109 1.25 14.5039 0.957031C14.8086 0.652344 15.1719 0.5 15.5938 0.5ZM16.8945 5.12305V14H14.6621V7.02148H13.2383V5.12305H16.8945ZM22.5723 4.89453C23.123 4.89453 23.6328 4.97656 24.1016 5.14062C24.5703 5.30469 24.9336 5.49219 25.1914 5.70312V7.67188C24.9102 7.48438 24.5645 7.30273 24.1543 7.12695C23.7559 6.95117 23.3398 6.86328 22.9062 6.86328C22.4844 6.86328 22.1504 6.95703 21.9043 7.14453C21.6582 7.33203 21.5352 7.55469 21.5352 7.8125C21.5352 8 21.6055 8.17578 21.7461 8.33984C21.8867 8.49219 22.1562 8.62695 22.5547 8.74414L23.5566 9.07812C24.9043 9.47656 25.5781 10.2559 25.5781 11.416C25.5781 11.9668 25.4199 12.459 25.1035 12.8926C24.7988 13.3145 24.3828 13.6484 23.8555 13.8945C23.3398 14.1406 22.7656 14.2637 22.1328 14.2637C21.5352 14.2637 20.9551 14.1699 20.3926 13.9824C19.8301 13.7949 19.4023 13.5898 19.1094 13.3672V11.416C19.332 11.5684 19.6016 11.7148 19.918 11.8555C20.2344 11.9961 20.5625 12.1133 20.9023 12.207C21.2422 12.2891 21.5527 12.3301 21.834 12.3301C22.2793 12.3301 22.6191 12.2539 22.8535 12.1016C23.0996 11.9375 23.2227 11.709 23.2227 11.416C23.2227 11.1934 23.123 11.0176 22.9238 10.8887C22.7246 10.7598 22.4316 10.6309 22.0449 10.502L20.9551 10.1152C20.2754 9.89258 19.8066 9.57617 19.5488 9.16602C19.291 8.75586 19.1621 8.26953 19.1621 7.70703C19.1621 7.14453 19.3027 6.6582 19.584 6.24805C19.877 5.82617 20.2812 5.49805 20.7969 5.26367C21.3125 5.01758 21.9043 4.89453 22.5723 4.89453ZM31.5195 4.89453C32.1758 4.89453 32.7148 5 33.1367 5.21094C33.5586 5.42188 33.8926 5.62695 34.1387 5.82617V7.88281C33.834 7.66016 33.4883 7.47266 33.1016 7.32031C32.7266 7.16797 32.2637 7.0918 31.7129 7.0918C31.2676 7.0918 30.8516 7.20312 30.4648 7.42578C30.0898 7.64844 29.791 7.94727 29.5684 8.32227C29.3457 8.69727 29.2344 9.125 29.2344 9.60547C29.2344 10.332 29.4688 10.9297 29.9375 11.3984C30.4062 11.8672 30.998 12.1016 31.7129 12.1016C32.2637 12.1016 32.7266 12.0312 33.1016 11.8906C33.4883 11.7383 33.834 11.5508 34.1387 11.3281V13.3672C33.8926 13.5781 33.5586 13.7832 33.1367 13.9824C32.7148 14.1699 32.1758 14.2637 31.5195 14.2637C30.6172 14.2637 29.8145 14.0527 29.1113 13.6309C28.4199 13.1973 27.8691 12.6289 27.459 11.9258C27.0605 11.2109 26.8613 10.4375 26.8613 9.60547C26.8613 8.98438 26.9727 8.39258 27.1953 7.83008C27.4297 7.26758 27.7578 6.76953 28.1797 6.33594C28.6016 5.89062 29.0938 5.53906 29.6562 5.28125C30.2305 5.02344 30.8516 4.89453 31.5195 4.89453ZM40.2559 4.89453C41.123 4.89453 41.9141 5.10547 42.6289 5.52734C43.3438 5.9375 43.918 6.5 44.3516 7.21484C44.7969 7.91797 45.0195 8.70898 45.0195 9.58789C45.0195 10.4668 44.7969 11.2578 44.3516 11.9609C43.918 12.6641 43.3438 13.2266 42.6289 13.6484C41.9141 14.0586 41.123 14.2637 40.2559 14.2637C39.4004 14.2637 38.6094 14.0586 37.8828 13.6484C37.168 13.2266 36.5938 12.6641 36.1602 11.9609C35.7266 11.2578 35.5098 10.4668 35.5098 9.58789C35.5098 8.70898 35.7266 7.91797 36.1602 7.21484C36.5938 6.5 37.168 5.9375 37.8828 5.52734C38.6094 5.10547 39.4004 4.89453 40.2559 4.89453ZM40.2559 7.05664C39.834 7.05664 39.4414 7.15625 39.0781 7.35547C38.7148 7.55469 38.4219 7.8418 38.1992 8.2168C37.9883 8.5918 37.8828 9.04883 37.8828 9.58789C37.8828 10.127 37.9883 10.584 38.1992 10.959C38.4219 11.334 38.7148 11.6211 39.0781 11.8203C39.4414 12.0078 39.834 12.1016 40.2559 12.1016C40.6777 12.1016 41.0703 12.0078 41.4336 11.8203C41.7969 11.6211 42.0898 11.334 42.3125 10.959C42.5352 10.584 42.6465 10.127 42.6465 9.58789C42.6465 9.04883 42.5352 8.5918 42.3125 8.2168C42.0898 7.8418 41.7969 7.55469 41.4336 7.35547C41.0703 7.15625 40.6777 7.05664 40.2559 7.05664ZM55.3555 5.12305L51.1543 14H49.7305L45.582 5.12305H48.1836L50.416 10.625L52.7539 5.12305H55.3555ZM60.3477 4.89453C61.2148 4.89453 61.959 5.08203 62.5801 5.45703C63.2129 5.83203 63.6934 6.35352 64.0215 7.02148C64.3613 7.67773 64.5312 8.43945 64.5312 9.30664V10.2559H58.0977C58.2148 10.8535 58.5078 11.334 58.9766 11.6973C59.4453 12.0605 60.0195 12.2422 60.6992 12.2422C61.3438 12.2422 61.9297 12.1133 62.457 11.8555C62.9844 11.5977 63.4062 11.334 63.7227 11.0645L63.7051 13.1387C63.4238 13.3848 63.002 13.6367 62.4395 13.8945C61.8887 14.1406 61.2793 14.2637 60.6113 14.2637C59.7324 14.2637 58.9297 14.0645 58.2031 13.666C57.4883 13.2676 56.9141 12.7227 56.4805 12.0312C56.0586 11.3398 55.8477 10.5488 55.8477 9.6582C55.8477 8.79102 56.041 8 56.4277 7.28516C56.8145 6.57031 57.3477 5.99609 58.0273 5.5625C58.707 5.11719 59.4805 4.89453 60.3477 4.89453ZM60.2949 6.8457C59.7441 6.8457 59.2812 7.01562 58.9062 7.35547C58.5312 7.69531 58.2734 8.15234 58.1328 8.72656H62.3867C62.3398 8.09375 62.1055 7.625 61.6836 7.32031C61.2617 7.00391 60.7988 6.8457 60.2949 6.8457ZM72.1602 7.61914C71.7852 7.4082 71.3926 7.30273 70.9824 7.30273C70.4668 7.30273 70.0391 7.47266 69.6992 7.8125C69.3594 8.14062 69.0605 8.55078 68.8027 9.04297V14H66.5703V5.12305H68.8027V6.79297C69.1074 6.26562 69.4648 5.82617 69.875 5.47461C70.2969 5.12305 70.7715 4.94727 71.2988 4.94727C71.6152 4.94727 71.9023 5 72.1602 5.10547V7.61914ZM83.2871 4.89453C84.1543 4.89453 84.9453 5.10547 85.6602 5.52734C86.375 5.9375 86.9492 6.5 87.3828 7.21484C87.8281 7.91797 88.0508 8.70898 88.0508 9.58789C88.0508 10.4668 87.8281 11.2578 87.3828 11.9609C86.9492 12.6641 86.375 13.2266 85.6602 13.6484C84.9453 14.0586 84.1543 14.2637 83.2871 14.2637C82.4316 14.2637 81.6406 14.0586 80.9141 13.6484C80.1992 13.2266 79.625 12.6641 79.1914 11.9609C78.7578 11.2578 78.541 10.4668 78.541 9.58789C78.541 8.70898 78.7578 7.91797 79.1914 7.21484C79.625 6.5 80.1992 5.9375 80.9141 5.52734C81.6406 5.10547 82.4316 4.89453 83.2871 4.89453ZM83.2871 7.05664C82.8652 7.05664 82.4727 7.15625 82.1094 7.35547C81.7461 7.55469 81.4531 7.8418 81.2305 8.2168C81.0195 8.5918 80.9141 9.04883 80.9141 9.58789C80.9141 10.127 81.0195 10.584 81.2305 10.959C81.4531 11.334 81.7461 11.6211 82.1094 11.8203C82.4727 12.0078 82.8652 12.1016 83.2871 12.1016C83.709 12.1016 84.1016 12.0078 84.4648 11.8203C84.8281 11.6211 85.1211 11.334 85.3438 10.959C85.5664 10.584 85.6777 10.127 85.6777 9.58789C85.6777 9.04883 85.5664 8.5918 85.3438 8.2168C85.1211 7.8418 84.8281 7.55469 84.4648 7.35547C84.1016 7.15625 83.709 7.05664 83.2871 7.05664ZM98 5.12305V10.4141C98 11.1992 97.8242 11.8789 97.4727 12.4531C97.1211 13.0156 96.6406 13.4492 96.0312 13.7539C95.4336 14.0586 94.7539 14.2109 93.9922 14.2109C93.2188 14.2109 92.5273 14.0586 91.918 13.7539C91.3203 13.4492 90.8457 13.0156 90.4941 12.4531C90.1543 11.8789 89.9844 11.1992 89.9844 10.4141V5.12305H92.2344L92.252 10.0098C92.252 10.7012 92.4102 11.2168 92.7266 11.5566C93.043 11.8965 93.4648 12.0664 93.9922 12.0664C94.5078 12.0664 94.9238 11.8965 95.2402 11.5566C95.5684 11.2168 95.7324 10.7012 95.7324 10.0098V5.12305H98ZM106.139 7.61914C105.764 7.4082 105.371 7.30273 104.961 7.30273C104.445 7.30273 104.018 7.47266 103.678 7.8125C103.338 8.14062 103.039 8.55078 102.781 9.04297V14H100.549V5.12305H102.781V6.79297C103.086 6.26562 103.443 5.82617 103.854 5.47461C104.275 5.12305 104.75 4.94727 105.277 4.94727C105.594 4.94727 105.881 5 106.139 5.10547V7.61914ZM116 4.89453C116.551 4.89453 117.061 4.97656 117.529 5.14062C117.998 5.30469 118.361 5.49219 118.619 5.70312V7.67188C118.338 7.48438 117.992 7.30273 117.582 7.12695C117.184 6.95117 116.768 6.86328 116.334 6.86328C115.912 6.86328 115.578 6.95703 115.332 7.14453C115.086 7.33203 114.963 7.55469 114.963 7.8125C114.963 8 115.033 8.17578 115.174 8.33984C115.314 8.49219 115.584 8.62695 115.982 8.74414L116.984 9.07812C118.332 9.47656 119.006 10.2559 119.006 11.416C119.006 11.9668 118.848 12.459 118.531 12.8926C118.227 13.3145 117.811 13.6484 117.283 13.8945C116.768 14.1406 116.193 14.2637 115.561 14.2637C114.963 14.2637 114.383 14.1699 113.82 13.9824C113.258 13.7949 112.83 13.5898 112.537 13.3672V11.416C112.76 11.5684 113.029 11.7148 113.346 11.8555C113.662 11.9961 113.99 12.1133 114.33 12.207C114.67 12.2891 114.98 12.3301 115.262 12.3301C115.707 12.3301 116.047 12.2539 116.281 12.1016C116.527 11.9375 116.65 11.709 116.65 11.416C116.65 11.1934 116.551 11.0176 116.352 10.8887C116.152 10.7598 115.859 10.6309 115.473 10.502L114.383 10.1152C113.703 9.89258 113.234 9.57617 112.977 9.16602C112.719 8.75586 112.59 8.26953 112.59 7.70703C112.59 7.14453 112.73 6.6582 113.012 6.24805C113.305 5.82617 113.709 5.49805 114.225 5.26367C114.74 5.01758 115.332 4.89453 116 4.89453ZM124.121 2.53906V5.12305H126.582V6.98633H124.121V10.8184C124.121 11.2168 124.209 11.5332 124.385 11.7676C124.572 11.9902 124.848 12.1016 125.211 12.1016C125.527 12.1016 125.797 12.0664 126.02 11.9961C126.254 11.9258 126.471 11.8262 126.67 11.6973V13.4727C126.447 13.6953 126.166 13.8828 125.826 14.0352C125.498 14.1875 125.082 14.2637 124.578 14.2637C123.781 14.2637 123.131 14.0117 122.627 13.5078C122.135 12.9922 121.889 12.2891 121.889 11.3984V6.98633H120.289V5.84375C120.852 5.64453 121.367 5.26953 121.836 4.71875C122.316 4.16797 122.697 3.44141 122.979 2.53906H124.121ZM132.998 4.89453C133.865 4.89453 134.656 5.10547 135.371 5.52734C136.086 5.9375 136.66 6.5 137.094 7.21484C137.539 7.91797 137.762 8.70898 137.762 9.58789C137.762 10.4668 137.539 11.2578 137.094 11.9609C136.66 12.6641 136.086 13.2266 135.371 13.6484C134.656 14.0586 133.865 14.2637 132.998 14.2637C132.143 14.2637 131.352 14.0586 130.625 13.6484C129.91 13.2266 129.336 12.6641 128.902 11.9609C128.469 11.2578 128.252 10.4668 128.252 9.58789C128.252 8.70898 128.469 7.91797 128.902 7.21484C129.336 6.5 129.91 5.9375 130.625 5.52734C131.352 5.10547 132.143 4.89453 132.998 4.89453ZM132.998 7.05664C132.576 7.05664 132.184 7.15625 131.82 7.35547C131.457 7.55469 131.164 7.8418 130.941 8.2168C130.73 8.5918 130.625 9.04883 130.625 9.58789C130.625 10.127 130.73 10.584 130.941 10.959C131.164 11.334 131.457 11.6211 131.82 11.8203C132.184 12.0078 132.576 12.1016 132.998 12.1016C133.42 12.1016 133.812 12.0078 134.176 11.8203C134.539 11.6211 134.832 11.334 135.055 10.959C135.277 10.584 135.389 10.127 135.389 9.58789C135.389 9.04883 135.277 8.5918 135.055 8.2168C134.832 7.8418 134.539 7.55469 134.176 7.35547C133.812 7.15625 133.42 7.05664 132.998 7.05664ZM145.461 7.61914C145.086 7.4082 144.693 7.30273 144.283 7.30273C143.768 7.30273 143.34 7.47266 143 7.8125C142.66 8.14062 142.361 8.55078 142.104 9.04297V14H139.871V5.12305H142.104V6.79297C142.408 6.26562 142.766 5.82617 143.176 5.47461C143.598 5.12305 144.072 4.94727 144.6 4.94727C144.916 4.94727 145.203 5 145.461 5.10547V7.61914ZM148.59 5.12305L151.121 10.7832L153.582 5.12305H156.131L149.68 18.2188H147.148L149.82 13.3496L145.988 5.12305H148.59ZM162.459 3.57617V6.00195L167.311 8.67383L162.459 11.5742V14L170.105 9.14844V8.25195L162.459 3.57617Z" fill="#232536"/>
</svg>
