<svg width="81" height="20" viewBox="0 0 81 20" fill="none" xmlns="http://www.w3.org/2000/svg">
<path d="M16.9062 0.679688V19.1367H15.5391L4.68359 7.95312V19H0.882812V0.542969H2.25L13.1055 11.8906V0.679688H16.9062ZM26.8164 4.83594C28.1654 4.83594 29.3229 5.1276 30.2891 5.71094C31.2734 6.29427 32.0208 7.10547 32.5312 8.14453C33.0599 9.16536 33.3242 10.3503 33.3242 11.6992V13.1758H23.3164C23.4987 14.1055 23.9544 14.8529 24.6836 15.418C25.4128 15.9831 26.306 16.2656 27.3633 16.2656C28.3659 16.2656 29.2773 16.0651 30.0977 15.6641C30.918 15.263 31.5742 14.8529 32.0664 14.4336L32.0391 17.6602C31.6016 18.043 30.9453 18.4349 30.0703 18.8359C29.2135 19.2188 28.2656 19.4102 27.2266 19.4102C25.8594 19.4102 24.6107 19.1003 23.4805 18.4805C22.3685 17.8607 21.4753 17.013 20.8008 15.9375C20.1445 14.862 19.8164 13.6315 19.8164 12.2461C19.8164 10.8971 20.1172 9.66667 20.7188 8.55469C21.3203 7.44271 22.1497 6.54948 23.207 5.875C24.2643 5.18229 25.4674 4.83594 26.8164 4.83594ZM26.7344 7.87109C25.8776 7.87109 25.1576 8.13542 24.5742 8.66406C23.9909 9.19271 23.5898 9.90365 23.3711 10.7969H29.9883C29.9154 9.8125 29.5508 9.08333 28.8945 8.60938C28.2383 8.11719 27.5182 7.87109 26.7344 7.87109ZM48.7578 5.19141L43.3438 11.9453L48.9492 19H44.6016L41.1562 14.1875L37.7109 19H33.3633L38.9688 11.9453L33.5547 5.19141H37.6562L41.1562 9.62109L44.6562 5.19141H48.7578ZM55.2227 1.17188V5.19141H59.0508V8.08984H55.2227V14.0508C55.2227 14.6706 55.3594 15.1628 55.6328 15.5273C55.9245 15.8737 56.3529 16.0469 56.918 16.0469C57.4102 16.0469 57.8294 15.9922 58.1758 15.8828C58.5404 15.7734 58.8776 15.6185 59.1875 15.418V18.1797C58.8411 18.526 58.4036 18.8177 57.875 19.0547C57.3646 19.2917 56.7174 19.4102 55.9336 19.4102C54.694 19.4102 53.6823 19.0182 52.8984 18.2344C52.1328 17.4323 51.75 16.3385 51.75 14.9531V8.08984H49.2617V6.3125C50.1367 6.0026 50.9388 5.41927 51.668 4.5625C52.4154 3.70573 53.0078 2.57552 53.4453 1.17188H55.2227ZM68.1797 2.78516V6.55859L75.7266 10.7148L68.1797 15.2266V19L80.0742 11.4531V10.0586L68.1797 2.78516Z" fill="#232536"/>
</svg>
