<svg width="72" height="17" viewBox="0 0 72 17" fill="none" xmlns="http://www.w3.org/2000/svg">
<path d="M10.9844 2.10156V5.33594L4.51562 8.89844L10.9844 12.7656V16L0.789062 9.53125V8.33594L10.9844 2.10156ZM28.0234 0.296875C28.7578 0.296875 29.4766 0.421875 30.1797 0.671875C30.8828 0.921875 31.5156 1.28906 32.0781 1.77344C32.6562 2.25781 33.1094 2.84375 33.4375 3.53125C33.7812 4.20312 33.9531 4.97656 33.9531 5.85156C33.9531 6.91406 33.6797 7.85938 33.1328 8.6875C32.6016 9.5 31.8906 10.1406 31 10.6094C30.1094 11.0781 29.1406 11.3125 28.0938 11.3125C27.3906 11.3125 26.7578 11.2422 26.1953 11.1016C25.6328 10.9609 25.1641 10.7969 24.7891 10.6094V16H21.5312V0.296875H28.0234ZM24.7891 3.34375V7.98438C25.1328 8.125 25.5469 8.25 26.0312 8.35938C26.5312 8.45312 27.0391 8.5 27.5547 8.5C28.4922 8.5 29.2344 8.24219 29.7812 7.72656C30.3438 7.19531 30.625 6.57031 30.625 5.85156C30.625 5.02344 30.3125 4.39844 29.6875 3.97656C29.0625 3.55469 28.3281 3.34375 27.4844 3.34375H24.7891ZM44.1719 7.49219C43.6719 7.21094 43.1484 7.07031 42.6016 7.07031C41.9141 7.07031 41.3438 7.29688 40.8906 7.75C40.4375 8.1875 40.0391 8.73438 39.6953 9.39062V16H36.7188V4.16406H39.6953V6.39062C40.1016 5.6875 40.5781 5.10156 41.125 4.63281C41.6875 4.16406 42.3203 3.92969 43.0234 3.92969C43.4453 3.92969 43.8281 4 44.1719 4.14062V7.49219ZM51.6484 3.85938C52.8047 3.85938 53.7969 4.10938 54.625 4.60938C55.4688 5.10938 56.1094 5.80469 56.5469 6.69531C57 7.57031 57.2266 8.58594 57.2266 9.74219V11.0078H48.6484C48.8047 11.8047 49.1953 12.4453 49.8203 12.9297C50.4453 13.4141 51.2109 13.6562 52.1172 13.6562C52.9766 13.6562 53.7578 13.4844 54.4609 13.1406C55.1641 12.7969 55.7266 12.4453 56.1484 12.0859L56.125 14.8516C55.75 15.1797 55.1875 15.5156 54.4375 15.8594C53.7031 16.1875 52.8906 16.3516 52 16.3516C50.8281 16.3516 49.7578 16.0859 48.7891 15.5547C47.8359 15.0234 47.0703 14.2969 46.4922 13.375C45.9297 12.4531 45.6484 11.3984 45.6484 10.2109C45.6484 9.05469 45.9062 8 46.4219 7.04688C46.9375 6.09375 47.6484 5.32812 48.5547 4.75C49.4609 4.15625 50.4922 3.85938 51.6484 3.85938ZM51.5781 6.46094C50.8438 6.46094 50.2266 6.6875 49.7266 7.14062C49.2266 7.59375 48.8828 8.20312 48.6953 8.96875H54.3672C54.3047 8.125 53.9922 7.5 53.4297 7.09375C52.8672 6.67188 52.25 6.46094 51.5781 6.46094ZM71.3828 4.16406L65.7812 16H63.8828L58.3516 4.16406H61.8203L64.7969 11.5L67.9141 4.16406H71.3828Z" fill="#6D6E76"/>
</svg>
