<svg width="106" height="14" viewBox="0 0 106 14" fill="none" xmlns="http://www.w3.org/2000/svg">
<path d="M5.53906 1.22266C6.08984 1.22266 6.62891 1.29883 7.15625 1.45117C7.68359 1.60352 8.1582 1.83789 8.58008 2.1543C9.01367 2.4707 9.35352 2.86914 9.59961 3.34961C9.85742 3.81836 9.98633 4.38086 9.98633 5.03711C9.98633 5.72852 9.81055 6.32617 9.45898 6.83008C9.11914 7.32227 8.66797 7.70898 8.10547 7.99023C7.54297 8.25977 6.93359 8.41797 6.27734 8.46484L10.5137 13H7.29688L3.20117 8.18359V13H0.757812V1.22266H5.53906ZM3.20117 3.50781V6.47852C3.48242 6.57227 3.79297 6.64844 4.13281 6.70703C4.48438 6.75391 4.83594 6.77734 5.1875 6.77734C5.89062 6.77734 6.44727 6.63672 6.85742 6.35547C7.2793 6.0625 7.49023 5.65234 7.49023 5.125C7.49023 4.55078 7.26758 4.14062 6.82227 3.89453C6.38867 3.63672 5.85547 3.50781 5.22266 3.50781H3.20117ZM15.7344 3.89453C16.6016 3.89453 17.3457 4.08203 17.9668 4.45703C18.5996 4.83203 19.0801 5.35352 19.4082 6.02148C19.748 6.67773 19.918 7.43945 19.918 8.30664V9.25586H13.4844C13.6016 9.85352 13.8945 10.334 14.3633 10.6973C14.832 11.0605 15.4062 11.2422 16.0859 11.2422C16.7305 11.2422 17.3164 11.1133 17.8438 10.8555C18.3711 10.5977 18.793 10.334 19.1094 10.0645L19.0918 12.1387C18.8105 12.3848 18.3887 12.6367 17.8262 12.8945C17.2754 13.1406 16.666 13.2637 15.998 13.2637C15.1191 13.2637 14.3164 13.0645 13.5898 12.666C12.875 12.2676 12.3008 11.7227 11.8672 11.0312C11.4453 10.3398 11.2344 9.54883 11.2344 8.6582C11.2344 7.79102 11.4277 7 11.8145 6.28516C12.2012 5.57031 12.7344 4.99609 13.4141 4.5625C14.0938 4.11719 14.8672 3.89453 15.7344 3.89453ZM15.6816 5.8457C15.1309 5.8457 14.668 6.01562 14.293 6.35547C13.918 6.69531 13.6602 7.15234 13.5195 7.72656H17.7734C17.7266 7.09375 17.4922 6.625 17.0703 6.32031C16.6484 6.00391 16.1855 5.8457 15.6816 5.8457ZM25.4727 3.89453C25.9531 3.89453 26.4395 4.00586 26.9316 4.22852C27.4238 4.45117 27.834 4.75 28.1621 5.125V4.12305H30.3945V13H28.1621V11.5059C27.9043 11.9863 27.5293 12.4023 27.0371 12.7539C26.5449 13.0938 25.9707 13.2637 25.3145 13.2637C24.5996 13.2637 23.9375 13.082 23.3281 12.7188C22.7305 12.3555 22.25 11.8281 21.8867 11.1367C21.5234 10.4453 21.3418 9.60742 21.3418 8.62305C21.3418 7.63867 21.5234 6.79492 21.8867 6.0918C22.2617 5.38867 22.7598 4.84961 23.3809 4.47461C24.0137 4.08789 24.7109 3.89453 25.4727 3.89453ZM25.9297 6.07422C25.4609 6.07422 25.0566 6.19727 24.7168 6.44336C24.3887 6.67773 24.1309 6.98828 23.9434 7.375C23.7559 7.76172 23.6621 8.17773 23.6621 8.62305C23.6621 9.29102 23.8613 9.85938 24.2598 10.3281C24.6699 10.7969 25.209 11.0312 25.877 11.0312C26.2754 11.0312 26.6445 10.9258 26.9844 10.7148C27.3359 10.5039 27.6172 10.2109 27.8281 9.83594C28.0508 9.44922 28.1621 8.98633 28.1621 8.44727V7.18164C27.8457 6.8418 27.5 6.57227 27.125 6.37305C26.7617 6.17383 26.3633 6.07422 25.9297 6.07422ZM41.5742 0.34375V13H39.3418V11.5059C39.084 11.9863 38.709 12.4023 38.2168 12.7539C37.7246 13.0938 37.1504 13.2637 36.4941 13.2637C35.7793 13.2637 35.1172 13.082 34.5078 12.7188C33.9102 12.3555 33.4297 11.8281 33.0664 11.1367C32.7031 10.4453 32.5215 9.60742 32.5215 8.62305C32.5215 7.63867 32.7031 6.79492 33.0664 6.0918C33.4414 5.38867 33.9395 4.84961 34.5605 4.47461C35.1934 4.08789 35.8906 3.89453 36.6523 3.89453C37.1328 3.89453 37.6191 4.00586 38.1113 4.22852C38.6035 4.45117 39.0137 4.75 39.3418 5.125V0.34375H41.5742ZM37.1094 6.0918C36.6406 6.0918 36.2363 6.21484 35.8965 6.46094C35.5684 6.69531 35.3105 7.00586 35.123 7.39258C34.9355 7.76758 34.8418 8.17773 34.8418 8.62305C34.8418 9.29102 35.041 9.85938 35.4395 10.3281C35.8496 10.7969 36.3887 11.0312 37.0566 11.0312C37.4551 11.0312 37.8242 10.9258 38.1641 10.7148C38.5156 10.5039 38.7969 10.2109 39.0078 9.83594C39.2305 9.44922 39.3418 8.98633 39.3418 8.44727V7.18164C39.0254 6.8418 38.6797 6.57812 38.3047 6.39062C37.9414 6.19141 37.543 6.0918 37.1094 6.0918ZM61.6484 1.13477V13H59.2051V5.82812L56.1816 9.13281H55.4785L52.4199 5.82812V13H49.9766V1.13477H50.8027L55.8301 6.37305L60.8223 1.13477H61.6484ZM68.9082 3.89453C69.7754 3.89453 70.5664 4.10547 71.2812 4.52734C71.9961 4.9375 72.5703 5.5 73.0039 6.21484C73.4492 6.91797 73.6719 7.70898 73.6719 8.58789C73.6719 9.4668 73.4492 10.2578 73.0039 10.9609C72.5703 11.6641 71.9961 12.2266 71.2812 12.6484C70.5664 13.0586 69.7754 13.2637 68.9082 13.2637C68.0527 13.2637 67.2617 13.0586 66.5352 12.6484C65.8203 12.2266 65.2461 11.6641 64.8125 10.9609C64.3789 10.2578 64.1621 9.4668 64.1621 8.58789C64.1621 7.70898 64.3789 6.91797 64.8125 6.21484C65.2461 5.5 65.8203 4.9375 66.5352 4.52734C67.2617 4.10547 68.0527 3.89453 68.9082 3.89453ZM68.9082 6.05664C68.4863 6.05664 68.0938 6.15625 67.7305 6.35547C67.3672 6.55469 67.0742 6.8418 66.8516 7.2168C66.6406 7.5918 66.5352 8.04883 66.5352 8.58789C66.5352 9.12695 66.6406 9.58398 66.8516 9.95898C67.0742 10.334 67.3672 10.6211 67.7305 10.8203C68.0938 11.0078 68.4863 11.1016 68.9082 11.1016C69.3301 11.1016 69.7227 11.0078 70.0859 10.8203C70.4492 10.6211 70.7422 10.334 70.9648 9.95898C71.1875 9.58398 71.2988 9.12695 71.2988 8.58789C71.2988 8.04883 71.1875 7.5918 70.9648 7.2168C70.7422 6.8418 70.4492 6.55469 70.0859 6.35547C69.7227 6.15625 69.3301 6.05664 68.9082 6.05664ZM81.3711 6.61914C80.9961 6.4082 80.6035 6.30273 80.1934 6.30273C79.6777 6.30273 79.25 6.47266 78.9102 6.8125C78.5703 7.14062 78.2715 7.55078 78.0137 8.04297V13H75.7812V4.12305H78.0137V5.79297C78.3184 5.26562 78.6758 4.82617 79.0859 4.47461C79.5078 4.12305 79.9824 3.94727 80.5098 3.94727C80.8262 3.94727 81.1133 4 81.3711 4.10547V6.61914ZM86.9785 3.89453C87.8457 3.89453 88.5898 4.08203 89.2109 4.45703C89.8438 4.83203 90.3242 5.35352 90.6523 6.02148C90.9922 6.67773 91.1621 7.43945 91.1621 8.30664V9.25586H84.7285C84.8457 9.85352 85.1387 10.334 85.6074 10.6973C86.0762 11.0605 86.6504 11.2422 87.3301 11.2422C87.9746 11.2422 88.5605 11.1133 89.0879 10.8555C89.6152 10.5977 90.0371 10.334 90.3535 10.0645L90.3359 12.1387C90.0547 12.3848 89.6328 12.6367 89.0703 12.8945C88.5195 13.1406 87.9102 13.2637 87.2422 13.2637C86.3633 13.2637 85.5605 13.0645 84.834 12.666C84.1191 12.2676 83.5449 11.7227 83.1113 11.0312C82.6895 10.3398 82.4785 9.54883 82.4785 8.6582C82.4785 7.79102 82.6719 7 83.0586 6.28516C83.4453 5.57031 83.9785 4.99609 84.6582 4.5625C85.3379 4.11719 86.1113 3.89453 86.9785 3.89453ZM86.9258 5.8457C86.375 5.8457 85.9121 6.01562 85.5371 6.35547C85.1621 6.69531 84.9043 7.15234 84.7637 7.72656H89.0176C88.9707 7.09375 88.7363 6.625 88.3145 6.32031C87.8926 6.00391 87.4297 5.8457 86.9258 5.8457ZM97.9824 2.57617V5.00195L102.834 7.67383L97.9824 10.5742V13L105.629 8.14844V7.25195L97.9824 2.57617Z" fill="#592EA9"/>
</svg>
